# xmcd
#
# Track frame offsets:
# 150
# 17380
# 36212
# 54857
#
# Disc length: 978 seconds
#
#
# Revision: 0
# Processed by: cddbd v1.4PL0 Copyright (c) Steve Scherf et al.
# Submitted via: FreeRIP 2.11 
#
DISCID=2103d004
DTITLE=India Arie - Video (Single)
DYEAR=2001
DGENRE=R&B
TTITLE0=Video - (Radio Edit)
TTITLE1=Video - (Lp Version)
TTITLE2=Video - (Instrumeltal)
TTITLE3=Butterfly - (Non-LP Track)
EXTD=Single
EXTT0=
EXTT1=
EXTT2=
EXTT3=
PLAYORDER=
